# Blender 4.4.0
# www.blender.org
mtllib gizmo_finger.mtl
o gizmo_finger
v 0.000000 0.022502 -0.000000
v 0.000000 0.022070 -0.002936
v 0.000000 0.020789 -0.005759
v 0.000000 0.018711 -0.008361
v 0.000000 0.015912 -0.010642
v 0.000000 0.012501 -0.012513
v 0.000000 0.008612 -0.013903
v 0.000000 0.004390 -0.014760
v 0.000000 0.000000 -0.015050
v 0.000000 -0.004390 -0.014760
v 0.000000 -0.008612 -0.013903
v 0.000000 -0.012501 -0.012513
v 0.000000 -0.015912 -0.010642
v 0.000000 -0.018711 -0.008361
v 0.000000 -0.020789 -0.005759
v 0.000000 -0.022070 -0.002936
v 0.000000 -0.022502 -0.000000
v 0.000000 -0.022070 0.002936
v 0.000000 -0.020789 0.005759
v 0.000000 -0.018711 0.008361
v 0.000000 -0.015912 0.010641
v 0.000000 -0.012501 0.012513
v 0.000000 -0.008612 0.013904
v 0.000000 -0.004390 0.014760
v 0.000000 -0.000000 0.015049
v 0.000000 0.004390 0.014760
v 0.000000 0.008612 0.013904
v 0.000000 0.012501 0.012513
v 0.000000 0.015912 0.010641
v 0.000000 0.018711 0.008361
v 0.000000 0.020789 0.005759
v 0.000000 0.022070 0.002936
l 1 2
l 2 3
l 3 4
l 4 5
l 5 6
l 6 7
l 7 8
l 8 9
l 9 10
l 10 11
l 11 12
l 12 13
l 13 14
l 14 15
l 15 16
l 16 17
l 17 18
l 18 19
l 19 20
l 20 21
l 21 22
l 22 23
l 23 24
l 24 25
l 25 26
l 26 27
l 27 28
l 28 29
l 29 30
l 30 31
l 31 32
l 1 32
