# Blender 4.4.0
# www.blender.org
mtllib gizmo_upperarm.mtl
o gizmo_upperarm
v 0.000000 0.000144 -0.063785
v -0.057490 0.000144 -0.031893
v -0.057490 0.000144 0.031893
v 0.000000 0.000144 0.063785
v 0.057490 0.000144 0.031893
v 0.057490 0.000144 -0.031893
v 0.000000 -0.307509 -0.063785
v -0.057490 -0.307509 -0.031893
v -0.057490 -0.307509 0.031893
v 0.000000 -0.307509 0.063785
v 0.057490 -0.307509 0.031893
v 0.057490 -0.307509 -0.031893
l 1 2
l 9 10
l 3 4
l 4 5
l 7 8
l 1 6
l 10 11
l 7 12
l 6 12
l 5 11
l 3 9
l 2 8
l 5 6
l 11 12
l 2 3
l 8 9
