# Blender 4.4.0
# www.blender.org
mtllib gizmo_thigh.mtl
o gizmo_thigh
v 0.000000 0.000144 -0.126702
v -0.114198 0.000144 -0.063352
v -0.114198 0.000144 0.063352
v 0.000000 0.000144 0.126702
v 0.114198 0.000144 0.063352
v 0.114198 0.000144 -0.063352
v 0.000000 -0.459631 -0.104282
v -0.093990 -0.459631 -0.052142
v -0.093990 -0.459631 0.052142
v 0.000000 -0.459631 0.104282
v 0.093990 -0.459631 0.052142
v 0.093990 -0.459631 -0.052142
l 1 2
l 9 10
l 3 4
l 4 5
l 7 8
l 1 6
l 10 11
l 7 12
l 6 12
l 5 11
l 3 9
l 2 8
l 5 6
l 11 12
l 2 3
l 8 9
