# Blender 4.4.0
# www.blender.org
mtllib gizmo_pole.mtl
o gizmo_pole
v 0.000000 -0.000000 -0.072858
v -0.036428 -0.000000 -0.063096
v -0.063096 -0.000000 -0.036428
v -0.072858 0.000000 0.000000
v -0.063096 0.000000 0.036428
v -0.036428 0.000000 0.063096
v 0.000000 0.000000 0.072858
v 0.036428 0.000000 0.063096
v 0.063096 0.000000 0.036428
v 0.072858 0.000000 0.000000
v 0.063096 -0.000000 -0.036428
v 0.036428 -0.000000 -0.063096
v 0.000000 -0.072858 0.000000
v -0.036428 -0.063096 0.000000
v -0.063096 -0.036428 0.000000
v -0.072858 0.000000 0.000000
v -0.063096 0.036428 -0.000000
v -0.036428 0.063096 -0.000000
v 0.000000 0.072858 -0.000000
v 0.036428 0.063096 -0.000000
v 0.063096 0.036428 -0.000000
v 0.072858 0.000000 0.000000
v 0.063096 -0.036428 0.000000
v 0.036428 -0.063096 0.000000
l 1 2
l 2 3
l 3 4
l 4 5
l 5 6
l 6 7
l 7 8
l 8 9
l 9 10
l 10 11
l 11 12
l 1 12
l 13 14
l 14 15
l 15 16
l 16 17
l 17 18
l 18 19
l 19 20
l 20 21
l 21 22
l 22 23
l 23 24
l 13 24
