# Blender 4.4.0
# www.blender.org
mtllib gizmo_hand.mtl
o gizmo_hand
v 0.000000 -0.013930 -0.117941
v -0.030716 -0.013930 -0.079816
v -0.030716 -0.013930 0.079816
v 0.000000 -0.013930 0.117941
v 0.030716 -0.013930 0.079816
v 0.030716 -0.013930 -0.079816
v 0.000000 -0.100201 -0.117941
v -0.030716 -0.100201 -0.079816
v -0.030716 -0.100201 0.079816
v 0.000000 -0.100201 0.117941
v 0.030716 -0.100201 0.079816
v 0.030716 -0.100201 -0.079816
l 1 2
l 9 10
l 3 4
l 4 5
l 7 8
l 1 6
l 10 11
l 7 12
l 6 12
l 5 11
l 3 9
l 2 8
l 5 6
l 11 12
l 8 9
l 2 3
