# Blender 4.4.0
# www.blender.org
mtllib gizmo_rootbind.mtl
o gizmo_rootbind
v -0.000000 -0.000000 -0.215397
v -0.082429 -0.000000 -0.199002
v -0.152309 -0.000000 -0.152309
v -0.199002 -0.000000 -0.082429
v -0.215398 0.000000 0.000000
v -0.199002 0.000000 0.082429
v -0.152309 0.000000 0.152309
v -0.082429 0.000000 0.199002
v -0.000000 0.000000 0.215397
v 0.082429 0.000000 0.199002
v 0.152309 0.000000 0.152309
v 0.199002 0.000000 0.082429
v 0.215397 0.000000 0.000000
v 0.199002 -0.000000 -0.082429
v 0.152309 -0.000000 -0.152309
v 0.082429 -0.000000 -0.199002
l 1 2
l 2 3
l 3 4
l 4 5
l 5 6
l 6 7
l 7 8
l 8 9
l 9 10
l 10 11
l 11 12
l 12 13
l 13 14
l 14 15
l 15 16
l 1 16
